<?xml version="1.0" encoding="UTF-8"?>
<svg width="32" height="32" viewBox="0 0 32 32" fill="none" xmlns="http://www.w3.org/2000/svg">
  <path d="M16 4C10 4 4 10 4 16C4 22 10 28 16 28C22 28 26 24 28 20C28.5 18.5 29 16.5 29 16C29 15.5 28.5 15 28 15C27.5 15 27 15.5 27 16C27 16.5 26.5 18.5 26 20C24 23.5 20 26 16 26C11 26 6 21 6 16C6 11 11 6 16 6C21 6 24.5 9.5 26 13C26.5 14 27 15 27 15.5C27 16 27.5 16.5 28 16.5C28.5 16.5 29 16 29 15.5C29 15 28.5 14 28 13C26.5 9 22.5 4 16 4Z" fill="#4CAF50"/>
  <path d="M16 8C12 8 8 12 8 16C8 20 12 24 16 24C20 24 23 21.5 24 18.5C24.5 17.5 25 16.5 25 16C25 15.5 24.5 15 24 15C23.5 15 23 15.5 23 16C23 16.5 22.5 17.5 22 18.5C21 21 18.5 22 16 22C13 22 10 19 10 16C10 13 13 10 16 10C19 10 21 12.5 22 14.5C22.5 15.5 23 16 23 16.5C23 17 23.5 17.5 24 17.5C24.5 17.5 25 17 25 16.5C25 16 24.5 15.5 24 14.5C23 12 20 8 16 8Z" fill="#66BB6A"/>
</svg> 